<svg
    xmlns="http://www.w3.org/2000/svg"
    viewBox="0 0 20 21"
    id="vector">
    <path
        id="path"
        d="M 8.429 16.528 L 11.449 16.528 L 11.449 20.138 L 8.429 20.138 L 8.429 16.528 Z"
        fill="#ffffff"/>
    <path
        id="path_1"
        d="M 1.408 9.137 L 0.688 9.016 C 0.366 8.962 0.062 9.179 0.008 9.5 C -0.046 9.822 0.171 10.126 0.493 10.18 L 1.213 10.3 C 1.246 10.306 1.279 10.309 1.311 10.309 C 1.594 10.309 1.844 10.104 1.892 9.816 C 1.946 9.495 1.729 9.191 1.408 9.137 Z"
        fill="#ffffff"/>
    <path
        id="path_2"
        d="M 9.939 1.974 C 9.639 1.972 9.364 2.142 9.226 2.408 L 3.188 14.012 C 3.074 14.231 3.055 14.487 3.133 14.72 C 3.254 15.094 3.602 15.348 3.995 15.348 L 15.882 15.348 C 16.276 15.348 16.623 15.094 16.744 14.72 C 16.823 14.487 16.803 14.231 16.69 14.012 L 10.652 2.408 C 10.514 2.142 10.239 1.972 9.939 1.974 Z M 9.939 14.094 C 9.603 14.094 9.331 13.822 9.331 13.487 C 9.331 13.151 9.603 12.879 9.939 12.879 C 10.274 12.879 10.546 13.151 10.546 13.487 C 10.546 13.822 10.274 14.094 9.939 14.094 Z M 10.529 11.286 C 10.529 11.612 10.265 11.876 9.939 11.876 C 9.613 11.876 9.349 11.612 9.349 11.286 L 9.349 7.25 C 9.349 6.925 9.613 6.66 9.939 6.66 C 10.265 6.66 10.529 6.925 10.529 7.25 L 10.529 11.286 Z"
        fill="#ffffff"/>
    <path
        id="path_3"
        d="M 4.79 2.039 C 4.907 2.174 5.072 2.244 5.238 2.244 C 5.374 2.244 5.511 2.197 5.622 2.101 C 5.87 1.889 5.897 1.516 5.685 1.269 L 4.77 0.205 C 4.558 -0.042 4.185 -0.07 3.938 0.143 C 3.691 0.355 3.663 0.728 3.876 0.975 L 4.79 2.039 Z"
        fill="#ffffff"/>
    <path
        id="path_4"
        d="M 0.63 5.026 L 2.456 6.204 C 2.555 6.268 2.665 6.299 2.775 6.299 C 2.969 6.299 3.158 6.203 3.271 6.029 C 3.448 5.755 3.369 5.39 3.095 5.213 L 1.27 4.035 C 0.997 3.858 0.631 3.937 0.455 4.21 C 0.278 4.484 0.356 4.849 0.63 5.026 Z"
        fill="#ffffff"/>
    <path
        id="path_5"
        d="M 14.378 2.101 C 14.489 2.197 14.626 2.244 14.762 2.244 C 14.928 2.244 15.093 2.174 15.21 2.039 L 16.125 0.975 C 16.337 0.728 16.309 0.355 16.062 0.143 C 15.815 -0.07 15.442 -0.042 15.23 0.205 L 14.315 1.269 C 14.102 1.516 14.13 1.889 14.378 2.101 Z"
        fill="#ffffff"/>
    <path
        id="path_6"
        d="M 17.225 6.299 C 17.334 6.299 17.445 6.268 17.544 6.204 L 19.37 5.026 C 19.643 4.849 19.722 4.484 19.545 4.21 C 19.369 3.937 19.003 3.858 18.73 4.035 L 16.904 5.213 C 16.631 5.39 16.552 5.755 16.729 6.029 C 16.842 6.203 17.031 6.299 17.225 6.299 Z"
        fill="#ffffff"/>
    <path
        id="path_7"
        d="M 19.992 9.5 C 19.938 9.179 19.634 8.962 19.312 9.016 L 18.592 9.137 C 18.271 9.191 18.054 9.495 18.108 9.816 C 18.156 10.104 18.406 10.309 18.689 10.309 C 18.721 10.309 18.754 10.306 18.787 10.3 L 19.507 10.18 C 19.829 10.126 20.046 9.822 19.992 9.5 Z"
        fill="#ffffff"/>
</svg>
