<svg
    xmlns="http://www.w3.org/2000/svg"
    viewBox="0 0 25 25"
    id="vector">
    <path
        id="path"
        d="M 11.442 25 C 9.289 25 7.536 23.248 7.536 21.094 C 7.536 20.663 7.886 20.313 8.317 20.313 C 8.748 20.313 9.098 20.663 9.098 21.094 C 9.098 22.387 10.15 23.438 11.442 23.438 C 12.734 23.438 13.786 22.387 13.786 21.094 C 13.786 20.663 14.136 20.313 14.567 20.313 C 14.998 20.313 15.348 20.663 15.348 21.094 C 15.348 23.248 13.595 25 11.442 25 Z"
        fill="#ffffff"/>
    <path
        id="path_1"
        d="M 20.036 21.875 L 2.848 21.875 C 1.843 21.875 1.025 21.057 1.025 20.052 C 1.025 19.519 1.258 19.014 1.663 18.667 C 1.689 18.644 1.717 18.623 1.746 18.604 C 3.275 17.27 4.15 15.35 4.15 13.323 L 4.15 10.417 C 4.15 6.396 7.422 3.125 11.442 3.125 C 11.609 3.125 11.789 3.128 11.956 3.156 C 12.382 3.227 12.669 3.63 12.598 4.055 C 12.527 4.48 12.117 4.768 11.699 4.697 C 11.616 4.683 11.524 4.688 11.442 4.688 C 8.284 4.688 5.713 7.257 5.713 10.417 L 5.713 13.323 C 5.713 15.84 4.61 18.221 2.689 19.855 C 2.673 19.868 2.66 19.879 2.643 19.891 C 2.615 19.926 2.588 19.98 2.588 20.052 C 2.588 20.194 2.707 20.313 2.848 20.313 L 20.036 20.313 C 20.177 20.313 20.296 20.194 20.296 20.052 C 20.296 19.979 20.269 19.926 20.24 19.891 C 20.224 19.879 20.211 19.868 20.195 19.855 C 18.273 18.22 17.171 15.84 17.171 13.323 L 17.171 12.188 C 17.171 11.756 17.521 11.406 17.953 11.406 C 18.384 11.406 18.734 11.756 18.734 12.188 L 18.734 13.323 C 18.734 15.351 19.61 17.272 21.141 18.607 C 21.169 18.626 21.196 18.646 21.221 18.668 C 21.627 19.014 21.859 19.519 21.859 20.052 C 21.859 21.057 21.041 21.875 20.036 21.875 Z"
        fill="#ffffff"/>
    <path
        id="path_2"
        d="M 18.734 10.417 C 15.862 10.417 13.525 8.08 13.525 5.208 C 13.525 2.337 15.862 0 18.734 0 C 21.606 0 23.942 2.337 23.942 5.208 C 23.942 8.08 21.606 10.417 18.734 10.417 Z M 18.734 1.563 C 16.723 1.563 15.088 3.198 15.088 5.208 C 15.088 7.219 16.723 8.854 18.734 8.854 C 20.744 8.854 22.38 7.219 22.38 5.208 C 22.38 3.198 20.744 1.563 18.734 1.563 Z"
        fill="#ffffff00"/>
    <path
        id="path_3"
        d="M 18.5 5.5 M 13 5.5 C 13 4.339 13.368 3.207 14.05 2.267 C 14.733 1.328 15.696 0.628 16.8 0.269 C 17.905 -0.09 19.095 -0.09 20.2 0.269 C 21.304 0.628 22.267 1.328 22.95 2.267 C 23.632 3.207 24 4.339 24 5.5 C 24 6.661 23.632 7.793 22.95 8.733 C 22.267 9.672 21.304 10.372 20.2 10.731 C 19.095 11.09 17.905 11.09 16.8 10.731 C 15.696 10.372 14.733 9.672 14.05 8.733 C 13.368 7.793 13 6.661 13 5.5"
        fill="#f7cb4500"/>
</svg>
