<svg
    xmlns="http://www.w3.org/2000/svg"
    viewBox="0 0 30 30"
    id="vector">
    <path
        id="path"
        d="M 27.722 10.637 L 26.654 10.637 L 21.875 1.623 C 21.648 1.194 21.116 1.031 20.687 1.258 C 20.258 1.485 20.095 2.017 20.322 2.446 L 24.665 10.637 L 5.463 10.637 L 9.806 2.446 C 10.033 2.017 9.87 1.485 9.441 1.258 C 9.012 1.03 8.48 1.194 8.252 1.623 L 3.473 10.637 L 2.278 10.637 C 1.022 10.637 0 11.659 0 12.915 C 0 14.171 1.022 15.193 2.278 15.193 L 2.341 15.193 C 2.343 15.206 2.345 15.219 2.347 15.231 L 4.18 25.509 C 4.525 27.442 6.2 28.845 8.163 28.845 L 21.965 28.845 C 23.928 28.845 25.603 27.442 25.947 25.509 L 27.78 15.231 C 27.783 15.218 27.784 15.205 27.786 15.192 C 29.013 15.157 30 14.15 30 12.915 C 30 11.659 28.978 10.637 27.722 10.637 Z M 24.217 25.201 C 24.022 26.294 23.075 27.087 21.965 27.087 L 8.163 27.087 C 7.053 27.087 6.106 26.294 5.911 25.201 L 4.126 15.193 L 26.002 15.193 L 24.217 25.201 Z M 27.722 13.435 L 2.278 13.435 C 1.991 13.435 1.758 13.202 1.758 12.915 C 1.758 12.628 1.991 12.395 2.278 12.395 L 27.722 12.395 C 28.009 12.395 28.242 12.628 28.242 12.915 C 28.242 13.202 28.009 13.435 27.722 13.435 Z"
        fill="#5dc74c"/>
    <path
        id="path_1"
        d="M 14.962 16.413 C 14.476 16.413 14.083 16.806 14.083 17.292 L 14.083 24.988 C 14.083 25.474 14.477 25.867 14.962 25.867 C 15.447 25.867 15.841 25.474 15.841 24.988 L 15.841 17.292 C 15.841 16.806 15.447 16.413 14.962 16.413 Z"
        fill="#5dc74c"/>
    <path
        id="path_2"
        d="M 11.963 24.842 L 10.667 17.146 C 10.586 16.667 10.132 16.344 9.654 16.425 C 9.175 16.506 8.853 16.959 8.933 17.438 L 10.23 25.134 C 10.302 25.564 10.674 25.867 11.095 25.867 C 11.144 25.867 11.193 25.863 11.242 25.855 C 11.721 25.774 12.044 25.321 11.963 24.842 Z"
        fill="#5dc74c"/>
    <path
        id="path_3"
        d="M 20.209 16.425 C 19.73 16.345 19.277 16.667 19.196 17.146 L 17.899 24.842 C 17.819 25.321 18.142 25.774 18.62 25.855 C 18.67 25.863 18.719 25.867 18.767 25.867 C 19.189 25.867 19.561 25.564 19.633 25.134 L 20.929 17.438 C 21.01 16.959 20.687 16.506 20.209 16.425 Z"
        fill="#5dc74c"/>
</svg>
