<svg
    xmlns="http://www.w3.org/2000/svg"
    viewBox="0 0 12 12"
    id="vector">
    <path
        id="path"
        d="M 6 0 C 2.692 0 0 2.692 0 6 C 0 9.308 2.692 12 6 12 C 9.308 12 12 9.308 12 6 C 12 2.692 9.308 0 6 0 Z M 8.427 7.72 C 8.524 7.817 8.524 7.976 8.427 8.073 L 8.073 8.427 C 7.976 8.524 7.817 8.524 7.72 8.427 L 6 6.707 L 4.28 8.427 C 4.183 8.524 4.024 8.524 3.927 8.427 L 3.573 8.073 C 3.476 7.976 3.476 7.817 3.573 7.72 L 5.293 6 L 3.573 4.28 C 3.476 4.183 3.476 4.024 3.573 3.927 L 3.927 3.573 C 4.024 3.476 4.183 3.476 4.28 3.573 L 6 5.293 L 7.72 3.573 C 7.817 3.476 7.976 3.476 8.073 3.573 L 8.427 3.927 C 8.524 4.024 8.524 4.183 8.427 4.28 L 6.707 6 L 8.427 7.72 Z"
        fill="#fff"/>
</svg>
