<svg
    xmlns="http://www.w3.org/2000/svg"
    viewBox="0 0 30 30"
    id="vector">
    <defs>
        <clipPath id="clip_path">
            <path d="M 0 0 L 30 0 L 30 30 L 0 30 Z M 0 0"/>
        </clipPath>
        <clipPath id="clip_path_1">
            <path d="M 0 0 L 30 0 L 30 30 L 0 30 Z M 0 0"/>
        </clipPath>
    </defs>
    <g id="group">
        <path
            id="path"
            clip-path="url(#clip_path)"
            d="M 0 13.181 L 0 20.945 C 0 23.181 1.812 24.994 4.048 24.994 L 25.952 24.994 C 28.188 24.994 30 23.181 30 20.945 L 30 13.181 C 30 12.793 29.685 12.477 29.296 12.477 L 0.704 12.477 C 0.315 12.477 0 12.793 0 13.181 Z M 7.49 18.11 L 5.613 18.11 C 4.932 18.11 4.381 17.558 4.381 16.878 C 4.381 16.197 4.932 15.646 5.613 15.646 L 7.49 15.646 C 8.171 15.646 8.722 16.197 8.722 16.878 C 8.722 17.558 8.171 18.11 7.49 18.11 Z"
            fill="#ffffff"/>
        <path
            id="path_1"
            clip-path="url(#clip_path_1)"
            d="M 30 9.309 L 30 9.055 C 30 6.819 28.188 5.007 25.952 5.007 L 4.048 5.007 C 1.812 5.007 0 6.819 0 9.055 L 0 9.309 C 0 9.698 0.315 10.013 0.704 10.013 L 29.296 10.013 C 29.685 10.013 30 9.698 30 9.309 Z"
            fill="#ffffff"/>
    </g>
</svg>
