<svg
    xmlns="http://www.w3.org/2000/svg"
    viewBox="0 0 25 25"
    id="vector">
    <path
        id="path_1"
        d="M 12.5 12.5 M 0 12.5 C 0 9.186 1.318 6.004 3.661 3.661 C 6.004 1.318 9.186 0 12.5 0 C 15.814 0 18.996 1.318 21.339 3.661 C 23.682 6.004 25 9.186 25 12.5 C 25 15.814 23.682 18.996 21.339 21.339 C 18.996 23.682 15.814 25 12.5 25 C 9.186 25 6.004 23.682 3.661 21.339 C 1.318 18.996 0 15.814 0 12.5"
        fill="#ffffff00"/>
    <path
        id="path_2"
        d="M 14.214 12.684 L 16.498 10.4 L 15.001 8.904 L 12.718 11.187 L 10.317 8.786 L 8.785 10.318 L 11.186 12.719 L 8.908 14.996 L 10.405 16.493 L 12.682 14.216 L 15.077 16.61 L 16.609 15.078 L 14.214 12.684 Z"
        fill="#c7d0e0"/>
</svg>
