<svg
    xmlns="http://www.w3.org/2000/svg"
    viewBox="0 0 20 20"
    id="vector">
    <path
        id="path"
        d="M 10 10 M 0 10 C 0 7.349 1.054 4.804 2.929 2.929 C 4.804 1.054 7.349 0 10 0 C 12.651 0 15.196 1.054 17.071 2.929 C 18.946 4.804 20 7.349 20 10 C 20 12.651 18.946 15.196 17.071 17.071 C 15.196 18.946 12.651 20 10 20 C 7.349 20 4.804 18.946 2.929 17.071 C 1.054 15.196 0 12.651 0 10"
        fill="#51ad42"/>
    <path
        id="path_2"
        d="M 13.348 6.746 L 8.915 12.066 L 6.619 9.771 C 6.217 9.368 5.563 9.368 5.161 9.771 C 4.758 10.174 4.758 10.826 5.161 11.229 L 8.255 14.323 C 8.449 14.517 8.711 14.625 8.984 14.625 C 9 14.625 9.016 14.625 9.031 14.624 C 9.32 14.611 9.591 14.476 9.777 14.254 L 14.933 8.066 C 15.298 7.628 15.238 6.979 14.801 6.614 C 14.363 6.25 13.713 6.308 13.348 6.746 Z"
        fill="#f2f2f2"/>
</svg>
