<svg
    xmlns="http://www.w3.org/2000/svg"
    viewBox="0 0 20 20"
    id="vector">
    <path
        id="path"
        d="M 17.273 0 L 2.727 0 C 1.224 0 0 1.224 0 2.727 L 0 17.273 C 0 18.776 1.224 20 2.727 20 L 17.273 20 C 18.776 20 20 18.776 20 17.273 L 20 2.727 C 20 1.224 18.776 0 17.273 0 Z M 19.091 17.273 C 19.091 18.271 18.273 19.091 17.273 19.091 L 2.727 19.091 C 1.727 19.091 0.909 18.271 0.909 17.273 L 0.909 2.727 C 0.909 1.728 1.727 0.909 2.727 0.909 L 17.273 0.909 C 18.273 0.909 19.091 1.728 19.091 2.727 L 19.091 17.273 Z"
        fill="#22549d"/>
    <path
        id="path_1"
        d="M 5.606 3.664 C 6.032 3.664 6.378 3.319 6.378 2.893 C 6.378 2.467 6.032 2.121 5.606 2.121 C 5.18 2.121 4.835 2.467 4.835 2.893 C 4.835 3.319 5.18 3.664 5.606 3.664 Z"
        fill="#22549d"/>
    <path
        id="path_2"
        d="M 10 3.664 C 10.426 3.664 10.771 3.319 10.771 2.893 C 10.771 2.467 10.426 2.121 10 2.121 C 9.574 2.121 9.229 2.467 9.229 2.893 C 9.229 3.319 9.574 3.664 10 3.664 Z"
        fill="#22549d"/>
    <path
        id="path_3"
        d="M 14.394 3.664 C 14.82 3.664 15.165 3.319 15.165 2.893 C 15.165 2.467 14.82 2.121 14.394 2.121 C 13.968 2.121 13.622 2.467 13.622 2.893 C 13.622 3.319 13.968 3.664 14.394 3.664 Z"
        fill="#22549d"/>
    <path
        id="path_4"
        d="M 9.533 7.819 L 6.748 7.819 L 6.748 10.297 L 9.533 10.297 L 9.533 7.819 Z"
        fill="#22549d"/>
    <path
        id="path_5"
        d="M 13.252 7.819 L 10.467 7.819 L 10.467 10.297 L 13.252 10.297 L 13.252 7.819 Z"
        fill="#22549d"/>
    <path
        id="path_6"
        d="M 16.97 7.819 L 14.184 7.819 L 14.184 10.297 L 16.97 10.297 L 16.97 7.819 Z"
        fill="#22549d"/>
    <path
        id="path_7"
        d="M 5.815 11.127 L 3.03 11.127 L 3.03 13.603 L 5.815 13.603 L 5.815 11.127 Z"
        fill="#22549d"/>
    <path
        id="path_8"
        d="M 9.533 11.127 L 6.748 11.127 L 6.748 13.603 L 9.533 13.603 L 9.533 11.127 Z"
        fill="#22549d"/>
    <path
        id="path_9"
        d="M 13.252 11.127 L 10.467 11.127 L 10.467 13.603 L 13.252 13.603 L 13.252 11.127 Z"
        fill="#22549d"/>
    <path
        id="path_10"
        d="M 16.97 11.127 L 14.184 11.127 L 14.184 13.603 L 16.97 13.603 L 16.97 11.127 Z"
        fill="#22549d"/>
    <path
        id="path_11"
        d="M 5.815 14.434 L 3.03 14.434 L 3.03 16.91 L 5.815 16.91 L 5.815 14.434 Z"
        fill="#22549d"/>
    <path
        id="path_12"
        d="M 9.533 14.434 L 6.748 14.434 L 6.748 16.91 L 9.533 16.91 L 9.533 14.434 Z"
        fill="#22549d"/>
    <path
        id="path_13"
        d="M 13.252 14.434 L 10.467 14.434 L 10.467 16.91 L 13.252 16.91 L 13.252 14.434 Z"
        fill="#22549d"/>
    <path
        id="path_14"
        d="M 16.97 14.434 L 14.184 14.434 L 14.184 16.91 L 16.97 16.91 L 16.97 14.434 Z"
        fill="#22549d"/>
</svg>
