<svg
    xmlns="http://www.w3.org/2000/svg"
    viewBox="0 0 20 20"
    id="vector">
    <path
        id="path"
        d="M 14.283 8.49 C 14.253 8.442 14.211 8.402 14.162 8.375 C 14.112 8.348 14.056 8.333 14 8.333 L 10.333 8.333 L 10.333 3.333 C 10.333 3.259 10.307 3.186 10.261 3.128 C 10.214 3.07 10.15 3.028 10.077 3.011 C 10.005 2.994 9.928 3.001 9.86 3.033 C 9.793 3.064 9.737 3.117 9.703 3.183 L 5.703 11.183 C 5.678 11.234 5.665 11.29 5.668 11.347 C 5.67 11.404 5.687 11.459 5.717 11.508 C 5.747 11.556 5.788 11.596 5.838 11.624 C 5.887 11.652 5.943 11.666 6 11.667 L 9.667 11.667 L 9.667 16.667 C 9.667 16.741 9.692 16.814 9.739 16.873 C 9.785 16.931 9.85 16.973 9.923 16.99 C 9.948 16.997 9.974 17 10 17 C 10.061 17 10.122 16.983 10.174 16.95 C 10.226 16.918 10.269 16.872 10.297 16.817 L 14.297 8.817 C 14.322 8.766 14.335 8.709 14.332 8.652 C 14.33 8.594 14.313 8.539 14.283 8.49 Z M 10.333 15.253 L 10.333 11.333 C 10.333 11.245 10.298 11.16 10.236 11.098 C 10.173 11.035 10.088 11 10 11 L 6.54 11 L 9.667 4.747 L 9.667 8.667 C 9.667 8.755 9.702 8.84 9.764 8.902 C 9.827 8.965 9.912 9 10 9 L 13.46 9 L 10.333 15.253 Z"
        fill="#ffffff"/>
    <path
        id="path_1"
        d="M 18.137 4.194 C 18.39 3.874 18.517 3.474 18.495 3.067 C 18.472 2.66 18.301 2.276 18.013 1.987 L 17.07 1.044 C 17.006 0.983 16.922 0.95 16.835 0.95 C 16.747 0.95 16.663 0.983 16.6 1.044 L 16.363 1.28 L 15.42 0.337 L 14.95 0.807 L 15.893 1.75 L 15.42 2.224 L 14.477 1.28 L 14.007 1.75 L 14.95 2.694 L 14.713 2.93 C 14.651 2.993 14.616 3.077 14.616 3.165 C 14.616 3.253 14.651 3.338 14.713 3.4 L 15.657 4.344 C 15.909 4.598 16.238 4.763 16.593 4.814 C 16.948 4.864 17.31 4.798 17.623 4.624 C 18.741 6.193 19.339 8.073 19.333 10 C 19.332 11.532 18.954 13.04 18.233 14.391 C 17.512 15.742 16.469 16.895 15.197 17.748 C 13.926 18.602 12.464 19.13 10.94 19.285 C 9.416 19.441 7.878 19.219 6.46 18.64 L 6.207 19.257 C 7.726 19.878 9.374 20.115 11.007 19.949 C 12.639 19.782 14.206 19.217 15.569 18.302 C 16.931 17.388 18.048 16.152 18.821 14.705 C 19.594 13.257 19.999 11.641 20 10 C 20.006 7.917 19.354 5.885 18.137 4.194 Z M 17.543 3.874 C 17.354 4.059 17.1 4.164 16.835 4.164 C 16.57 4.164 16.316 4.059 16.127 3.874 L 15.42 3.164 L 16.837 1.75 L 17.543 2.457 C 17.731 2.645 17.836 2.9 17.836 3.165 C 17.836 3.431 17.731 3.685 17.543 3.874 Z"
        fill="#ffffff"/>
    <path
        id="path_2"
        d="M 10 0 C 7.349 0.003 4.807 1.058 2.933 2.933 C 1.058 4.807 0.003 7.349 0 10 C -0.006 12.084 0.646 14.116 1.863 15.807 C 1.61 16.126 1.483 16.527 1.505 16.933 C 1.528 17.34 1.699 17.724 1.987 18.013 L 2.93 18.957 C 2.96 18.988 2.997 19.012 3.037 19.029 C 3.077 19.045 3.12 19.054 3.163 19.053 C 3.207 19.054 3.251 19.046 3.292 19.029 C 3.332 19.012 3.369 18.988 3.4 18.957 L 3.637 18.72 L 4.58 19.663 L 5.05 19.193 L 4.107 18.25 L 4.58 17.777 L 5.523 18.72 L 5.993 18.25 L 5.05 17.307 L 5.287 17.07 C 5.349 17.008 5.384 16.923 5.384 16.835 C 5.384 16.747 5.349 16.663 5.287 16.6 L 4.343 15.657 C 4.089 15.405 3.761 15.241 3.406 15.191 C 3.052 15.14 2.691 15.205 2.377 15.377 C 1.259 13.807 0.661 11.927 0.667 10 C 0.669 7.526 1.654 5.153 3.403 3.403 C 5.153 1.654 7.526 0.669 10 0.667 C 11.214 0.664 12.417 0.901 13.54 1.363 L 13.793 0.743 C 12.589 0.251 11.301 -0.002 10 0 Z M 2.457 16.127 C 2.646 15.941 2.9 15.837 3.165 15.837 C 3.43 15.837 3.684 15.941 3.873 16.127 L 4.58 16.837 L 3.163 18.25 L 2.457 17.543 C 2.269 17.355 2.164 17.101 2.164 16.835 C 2.164 16.57 2.269 16.315 2.457 16.127 Z"
        fill="#ffffff"/>
</svg>
