<svg
    xmlns="http://www.w3.org/2000/svg"
    viewBox="0 0 20 20"
    id="vector">
    <path
        id="path"
        d="M 19.595 17.641 L 15.368 13.413 C 16.395 11.984 16.96 10.277 16.96 8.479 C 16.96 6.215 16.078 4.086 14.475 2.485 C 12.876 0.883 10.745 0 8.48 0 C 6.215 0 4.085 0.881 2.484 2.485 C 0.883 4.085 0.001 6.215 0.001 8.479 C 0.001 10.744 0.882 12.873 2.484 14.476 C 4.085 16.077 6.214 16.96 8.48 16.96 C 10.277 16.96 11.983 16.398 13.413 15.368 L 17.64 19.596 C 17.91 19.866 18.263 20.001 18.617 20.001 C 18.972 20.001 19.325 19.866 19.595 19.596 C 20.134 19.055 20.134 18.18 19.595 17.641 Z M 4.44 12.52 C 3.36 11.44 2.766 10.005 2.766 8.479 C 2.766 6.953 3.36 5.519 4.44 4.439 C 5.519 3.359 6.953 2.764 8.48 2.764 C 10.006 2.764 11.441 3.359 12.52 4.439 C 13.6 5.519 14.195 6.954 14.195 8.479 C 14.195 10.005 13.601 11.44 12.52 12.521 C 11.441 13.601 10.007 14.194 8.48 14.194 C 6.953 14.194 5.518 13.599 4.44 12.52 Z"
        fill="#949494"/>
</svg>
