<svg
    xmlns="http://www.w3.org/2000/svg"
    viewBox="0 0 29 24"
    id="vector">
    <path
        id="path"
        d="M 26.911 12.152 L 14.937 0.18 C 14.7 -0.059 14.303 -0.059 14.066 0.18 L 2.095 12.152 C 1.851 12.39 1.851 12.782 2.095 13.024 L 4.089 15.02 L 4.089 22.383 C 4.089 22.725 4.366 23 4.702 23 L 23.754 23 C 24.096 23 24.369 22.725 24.369 22.384 L 24.369 15.368 C 24.503 15.351 24.628 15.302 24.728 15.201 L 26.911 13.023 C 27.146 12.782 27.146 12.391 26.911 12.152 Z M 5.322 21.766 L 5.322 15.02 L 14.502 5.842 L 23.137 14.477 L 23.137 21.766 L 5.322 21.766 Z M 24.296 13.895 L 14.937 4.536 C 14.813 4.413 14.66 4.354 14.502 4.354 C 14.347 4.354 14.186 4.413 14.065 4.536 L 4.943 13.653 C 4.876 13.625 4.79 13.604 4.702 13.604 C 4.621 13.604 4.539 13.625 4.463 13.653 L 3.401 12.59 L 14.502 1.488 L 25.598 12.589 L 24.296 13.895 Z"
        fill="#8f9090"/>
    <path
        id="path_1"
        d="M 17.402 13.604 L 11.961 13.604 C 11.62 13.604 11.345 13.88 11.345 14.22 L 11.345 18.575 C 11.345 18.915 11.62 19.193 11.961 19.193 L 17.402 19.193 C 17.742 19.193 18.019 18.915 18.019 18.575 L 18.019 14.22 C 18.02 13.88 17.742 13.604 17.402 13.604 Z M 16.786 17.957 L 12.574 17.957 L 12.574 14.84 L 16.786 14.84 L 16.786 17.957 Z"
        fill="#8f9090"/>
</svg>
