<svg
    xmlns="http://www.w3.org/2000/svg"
    viewBox="0 0 880 880"
    id="vector">
    <path
        id="path"
        d="M 757.23 792.26 C 757.23 792.26 239.77 826.67 169.63 760.5 C 99.49 694.33 129.93 174.23 129.93 174.23 C 162.36 346.93 183.32 578.37 254.34 674.48 C 321.83 765.79 588.06 763.37 757.23 792.26 Z"
        fill="#ffffff"
        stroke="#00000000"/>
    <path
        id="path_1"
        d="M 0 458.52 C 0 458.52 342.37 68.99 438.76 66.37 C 535.15 63.75 880.6 453.77 880.6 453.77 C 735.76 354.28 557.6 205.06 439.45 187.1 C 327.19 170.03 140.26 359.61 0 458.52 Z"
        fill="#ffffff"
        stroke="#00000000"/>
    <path
        id="path_2"
        d="M 335.19 391.81 C 335.19 391.81 505.19 378.18 528.53 399.62 C 551.87 421.06 544.2 592.21 544.2 592.21 C 532.77 535.57 524.84 459.56 501.06 428.29 C 478.46 398.57 390.94 400.56 335.19 391.81 Z"
        fill="#ffffff"
        stroke="#00000000"/>
    <path
        id="path_3"
        d="M 128.84 79.69 C 128.84 79.69 215.45 72.86 227.35 83.57 C 239.25 94.28 235.35 179.74 235.35 179.74 C 229.53 151.46 225.5 113.5 213.35 97.89 C 201.84 83.04 157.25 84.05 128.84 79.69 Z"
        fill="#ffffff"
        stroke="#00000000"/>
</svg>
