<svg
    xmlns="http://www.w3.org/2000/svg"
    viewBox="0 0 25 25"
    id="vector">
    <defs>
        <clipPath id="clip_path">
            <path d="M 0 0 L 25 0 L 25 25 L 0 25 Z M 0 0"/>
        </clipPath>
        <clipPath id="clip_path_1">
            <path d="M 0 0 L 25 0 L 25 25 L 0 25 Z M 0 0"/>
        </clipPath>
        <clipPath id="clip_path_2">
            <path d="M 0 0 L 25 0 L 25 25 L 0 25 Z M 0 0"/>
        </clipPath>
        <clipPath id="clip_path_3">
            <path d="M 0 0 L 25 0 L 25 25 L 0 25 Z M 0 0"/>
        </clipPath>
        <clipPath id="clip_path_4">
            <path d="M 0 0 L 25 0 L 25 25 L 0 25 Z M 0 0"/>
        </clipPath>
        <clipPath id="clip_path_5">
            <path d="M 0 0 L 25 0 L 25 25 L 0 25 Z M 0 0"/>
        </clipPath>
        <clipPath id="clip_path_6">
            <path d="M 0 0 L 25 0 L 25 25 L 0 25 Z M 0 0"/>
        </clipPath>
        <clipPath id="clip_path_7">
            <path d="M 0 0 L 25 0 L 25 25 L 0 25 Z M 0 0"/>
        </clipPath>
    </defs>
    <g id="group">
        <path
            id="path"
            clip-path="url(#clip_path)"
            d="M 15.296 3.254 C 14.228 2.172 12.493 2.378 11.565 3.533 C 11.505 3.594 11.46 3.672 11.438 3.755 L 9.787 10.057 L 4.217 15.626 C 4.027 15.817 4.027 16.126 4.217 16.316 C 4.408 16.507 4.717 16.507 4.908 16.317 L 10.225 10.999 L 14.019 14.793 L 5.221 23.591 C 3.766 24.981 2.398 22.701 1.427 21.868 C 0.653 21.058 1.006 20.057 1.801 19.423 C 2.256 18.983 1.551 18.277 1.111 18.733 C 1.111 18.732 0.737 19.106 0.737 19.106 C -1.149 21.176 1.011 22.875 2.459 24.281 C 3.411 25.232 4.959 25.232 5.911 24.281 L 14.961 15.231 L 21.264 13.58 C 21.347 13.557 21.424 13.513 21.485 13.453 C 22.634 12.559 22.845 10.755 21.764 9.722 C 21.764 9.722 15.296 3.254 15.296 3.254 Z M 14.605 3.945 L 21.074 10.413 C 21.616 10.934 21.645 11.862 21.138 12.415 L 12.603 3.881 C 13.177 3.375 14.057 3.396 14.605 3.945 Z M 10.768 10.162 L 12.167 4.825 L 20.193 12.851 L 14.857 14.249 L 10.768 10.162 Z"
            fill="#ffffff"/>
        <path
            id="path_1"
            clip-path="url(#clip_path_1)"
            d="M 24.525 8.363 L 22.842 8.363 C 22.573 8.363 22.354 8.581 22.354 8.851 C 22.354 9.121 22.573 9.339 22.842 9.339 L 24.525 9.339 C 25.158 9.348 25.159 8.354 24.525 8.363 Z"
            fill="#ffffff"/>
        <path
            id="path_2"
            clip-path="url(#clip_path_2)"
            d="M 20.711 7.336 C 20.796 7.595 21.08 7.73 21.329 7.645 L 24.46 6.602 C 24.716 6.516 24.854 6.24 24.769 5.984 C 24.683 5.729 24.407 5.59 24.151 5.676 L 21.02 6.719 C 20.765 6.804 20.626 7.081 20.711 7.336 Z"
            fill="#ffffff"/>
        <path
            id="path_3"
            clip-path="url(#clip_path_3)"
            d="M 19.16 5.858 C 19.351 6.049 19.66 6.048 19.85 5.858 L 22.557 3.151 C 22.748 2.961 22.748 2.651 22.557 2.461 C 22.367 2.27 22.058 2.27 21.867 2.461 L 19.16 5.168 C 18.969 5.358 18.969 5.667 19.16 5.858 Z"
            fill="#ffffff"/>
        <path
            id="path_4"
            clip-path="url(#clip_path_4)"
            d="M 17.682 4.307 C 17.931 4.392 18.215 4.256 18.299 3.998 L 19.343 0.867 C 19.428 0.612 19.29 0.335 19.034 0.25 C 18.778 0.165 18.502 0.303 18.417 0.558 L 17.373 3.689 C 17.288 3.945 17.426 4.222 17.682 4.307 Z"
            fill="#ffffff"/>
        <path
            id="path_5"
            clip-path="url(#clip_path_5)"
            d="M 16.167 2.664 C 16.437 2.664 16.655 2.446 16.655 2.176 L 16.655 0.493 C 16.655 0.224 16.437 0.005 16.167 0.005 C 15.898 0.005 15.679 0.224 15.679 0.493 L 15.679 2.176 C 15.679 2.446 15.898 2.664 16.167 2.664 Z"
            fill="#ffffff"/>
        <path
            id="path_6"
            clip-path="url(#clip_path_6)"
            d="M 7.068 19.672 C 7.25 19.861 7.577 19.861 7.759 19.672 L 11.758 15.673 C 11.949 15.482 11.949 15.173 11.758 14.982 C 11.54 14.837 9.985 13.012 9.69 13.117 C 9.561 13.117 9.437 13.168 9.345 13.26 L 5.346 17.259 C 5.155 17.45 5.155 17.759 5.346 17.949 L 7.068 19.672 Z M 9.69 14.295 L 10.723 15.328 L 9.904 16.146 L 8.872 15.114 L 9.69 14.295 Z M 8.181 15.804 L 9.214 16.837 L 7.413 18.637 L 6.381 17.604 L 8.181 15.804 Z"
            fill="#ffffff"/>
        <path
            id="path_7"
            clip-path="url(#clip_path_7)"
            d="M 3.009 18.012 C 3.279 18.012 3.497 17.794 3.497 17.524 C 3.497 17.255 3.279 17.036 3.009 17.036 C 2.739 17.036 2.521 17.255 2.521 17.524 C 2.521 17.794 2.739 18.012 3.009 18.012 Z"
            fill="#ffffff"/>
    </g>
</svg>
