<svg
    xmlns="http://www.w3.org/2000/svg"
    viewBox="0 0 22 22"
    id="vector">
    <defs>
        <clipPath id="clip_path">
            <path d="M 0 0 L 22 0 L 22 22 L 0 22 Z M 0 0"/>
        </clipPath>
        <clipPath id="clip_path_1">
            <path d="M 0 0 L 22 0 L 22 22 L 0 22 Z M 0 0"/>
        </clipPath>
    </defs>
    <g id="group">
        <path
            id="path"
            clip-path="url(#clip_path)"
            d="M 21.126 11.657 L 18.828 7.679 L 19.015 7.571 C 19.415 7.34 19.702 6.967 19.822 6.52 C 19.941 6.073 19.88 5.607 19.649 5.207 C 19.171 4.38 18.111 4.096 17.284 4.573 L 17.098 4.681 L 14.801 0.702 C 14.613 0.378 14.311 0.145 13.949 0.048 C 13.587 -0.049 13.209 0.001 12.884 0.189 C 12.56 0.376 12.328 0.678 12.231 1.04 C 12.164 1.288 12.167 1.544 12.235 1.784 L 10.035 4.259 C 9.878 4.437 9.894 4.708 10.071 4.866 C 10.248 5.024 10.52 5.008 10.678 4.83 L 12.658 2.602 L 18.411 12.567 L 8.796 14.63 L 6.107 9.973 L 8.109 7.721 C 8.267 7.543 8.251 7.271 8.073 7.114 C 7.896 6.956 7.624 6.972 7.467 7.15 L 5.305 9.582 L 1.711 11.657 C 1.237 11.93 0.898 12.372 0.756 12.9 C 0.615 13.429 0.688 13.981 0.961 14.455 L 2.343 16.848 C 2.722 17.504 3.412 17.872 4.12 17.872 C 4.468 17.872 4.819 17.784 5.141 17.598 L 6.162 17.008 L 10.646 21.491 C 10.98 21.826 11.426 22 11.877 22 C 12.175 22 12.474 21.924 12.745 21.768 C 13.217 21.495 13.528 21.029 13.6 20.488 C 13.671 19.948 13.491 19.417 13.105 19.032 L 11.551 17.478 L 11.975 17.234 C 12.299 17.047 12.509 16.726 12.55 16.354 C 12.591 15.982 12.457 15.624 12.182 15.37 L 11.665 14.893 L 18.907 13.34 C 19.081 13.518 19.301 13.648 19.548 13.714 C 19.669 13.746 19.791 13.762 19.913 13.762 C 20.156 13.762 20.396 13.698 20.612 13.574 C 20.937 13.386 21.169 13.084 21.266 12.722 C 21.363 12.36 21.313 11.982 21.126 11.657 Z M 17.527 5.425 L 17.714 5.317 C 18.13 5.077 18.664 5.22 18.904 5.636 C 19.145 6.053 19.002 6.587 18.585 6.827 L 18.399 6.934 L 17.542 5.45 L 17.527 5.425 Z M 4.711 16.854 C 4.144 17.181 3.415 16.986 3.087 16.418 L 1.705 14.025 C 1.546 13.75 1.504 13.43 1.587 13.123 C 1.669 12.816 1.865 12.56 2.14 12.401 L 5.423 10.506 L 7.994 14.958 L 4.711 16.854 Z M 12.748 20.376 C 12.712 20.65 12.554 20.886 12.315 21.023 C 11.971 21.222 11.534 21.165 11.254 20.884 L 6.933 16.563 L 8.51 15.653 L 12.497 19.64 C 12.692 19.834 12.784 20.103 12.748 20.376 Z M 11.6 16.002 C 11.672 16.068 11.707 16.162 11.696 16.259 C 11.685 16.357 11.63 16.441 11.545 16.489 L 10.922 16.849 L 9.443 15.37 L 10.637 15.114 L 11.6 16.002 Z M 20.436 12.499 C 20.398 12.64 20.308 12.757 20.183 12.829 C 20.057 12.902 19.91 12.921 19.77 12.884 C 19.63 12.846 19.513 12.756 19.44 12.63 L 13.115 1.675 C 13.043 1.549 13.023 1.403 13.061 1.263 C 13.098 1.123 13.188 1.005 13.314 0.933 C 13.398 0.884 13.491 0.86 13.585 0.86 C 13.632 0.86 13.68 0.866 13.726 0.878 C 13.867 0.916 13.984 1.006 14.056 1.132 L 20.381 12.087 C 20.454 12.213 20.473 12.359 20.436 12.499 Z"
            fill="#8f9090"/>
        <path
            id="path_1"
            clip-path="url(#clip_path_1)"
            d="M 9.072 6.42 C 9.185 6.42 9.296 6.374 9.376 6.294 C 9.456 6.214 9.502 6.103 9.502 5.99 C 9.502 5.877 9.456 5.766 9.376 5.686 C 9.296 5.607 9.185 5.561 9.072 5.561 C 8.959 5.561 8.848 5.606 8.768 5.686 C 8.688 5.766 8.642 5.877 8.642 5.99 C 8.642 6.103 8.688 6.214 8.768 6.294 C 8.848 6.374 8.959 6.42 9.072 6.42 Z"
            fill="#8f9090"/>
    </g>
</svg>
