<svg
    xmlns="http://www.w3.org/2000/svg"
    viewBox="0 0 26 26"
    id="vector">
    <defs>
        <clipPath id="clip_path">
            <path d="M 0 0 L 26 0 L 26 26 L 0 26 Z M 0 0"/>
        </clipPath>
        <clipPath id="clip_path_1">
            <path d="M 0 0 L 26 0 L 26 26 L 0 26 Z M 0 0"/>
        </clipPath>
        <clipPath id="clip_path_2">
            <path d="M 0 0 L 26 0 L 26 26 L 0 26 Z M 0 0"/>
        </clipPath>
        <clipPath id="clip_path_3">
            <path d="M 0 0 L 26 0 L 26 26 L 0 26 Z M 0 0"/>
        </clipPath>
        <clipPath id="clip_path_4">
            <path d="M 0 0 L 26 0 L 26 26 L 0 26 Z M 0 0"/>
        </clipPath>
        <clipPath id="clip_path_5">
            <path d="M 0 0 L 26 0 L 26 26 L 0 26 Z M 0 0"/>
        </clipPath>
    </defs>
    <g id="group">
        <path
            id="path"
            clip-path="url(#clip_path)"
            d="M 21.21 10.392 L 11.524 10.392 C 11.972 9.877 12.244 9.205 12.244 8.471 C 12.244 6.855 10.929 5.54 9.313 5.54 C 7.697 5.54 6.383 6.855 6.383 8.471 C 6.383 9.205 6.655 9.877 7.103 10.392 L 4.791 10.392 C 3.393 10.392 2.257 11.528 2.257 12.925 L 2.257 15.915 C 2.257 16.195 2.484 16.422 2.764 16.422 C 3.043 16.422 3.27 16.195 3.27 15.915 L 3.27 12.925 C 3.27 12.087 3.952 11.405 4.791 11.405 L 18.98 11.405 C 19.818 11.405 20.5 12.087 20.5 12.925 L 20.5 15.662 L 15.23 15.662 C 13.833 15.662 12.696 16.798 12.696 18.196 C 12.696 19.593 13.833 20.729 15.23 20.729 L 20.5 20.729 L 20.5 23.466 C 20.5 24.304 19.818 24.986 18.98 24.986 L 4.791 24.986 C 3.952 24.986 3.27 24.304 3.27 23.466 L 3.27 20.472 C 3.27 20.192 3.043 19.965 2.764 19.965 C 2.484 19.965 2.257 20.192 2.257 20.472 L 2.257 23.466 C 2.257 24.863 3.393 26 4.791 26 L 21.21 26 C 22.607 26 23.743 24.863 23.743 23.466 L 23.743 12.925 C 23.743 11.528 22.607 10.392 21.21 10.392 Z M 9.313 6.554 C 10.37 6.554 11.23 7.414 11.23 8.471 C 11.23 9.528 10.37 10.388 9.313 10.388 C 8.256 10.388 7.396 9.528 7.396 8.471 C 7.396 7.414 8.256 6.554 9.313 6.554 Z M 21.006 11.405 L 21.21 11.405 C 22.048 11.405 22.73 12.087 22.73 12.925 L 22.73 15.662 L 21.514 15.662 L 21.514 12.925 C 21.514 12.355 21.324 11.829 21.006 11.405 Z M 13.71 18.196 C 13.71 17.357 14.392 16.675 15.23 16.675 L 22.73 16.675 L 22.73 19.716 L 15.23 19.716 C 14.392 19.716 13.71 19.034 13.71 18.196 Z M 21.21 24.986 L 21.006 24.986 C 21.324 24.562 21.514 24.036 21.514 23.466 L 21.514 20.729 L 22.73 20.729 L 22.73 23.466 C 22.73 24.304 22.048 24.986 21.21 24.986 Z"
            fill="#8f9090"/>
        <path
            id="path_1"
            clip-path="url(#clip_path_1)"
            d="M 15.1 17.689 C 14.966 17.689 14.836 17.744 14.741 17.838 C 14.647 17.932 14.593 18.063 14.593 18.196 C 14.593 18.329 14.647 18.46 14.741 18.555 C 14.836 18.649 14.966 18.703 15.1 18.703 C 15.233 18.703 15.364 18.649 15.458 18.555 C 15.553 18.46 15.607 18.329 15.607 18.196 C 15.607 18.063 15.553 17.932 15.458 17.838 C 15.364 17.744 15.233 17.689 15.1 17.689 Z"
            fill="#8f9090"/>
        <path
            id="path_2"
            clip-path="url(#clip_path_2)"
            d="M 16.687 6.976 C 18.303 6.976 19.617 5.661 19.617 4.045 C 19.617 2.429 18.303 1.114 16.687 1.114 C 15.071 1.114 13.756 2.429 13.756 4.045 C 13.756 5.661 15.071 6.976 16.687 6.976 Z M 16.687 2.128 C 17.744 2.128 18.604 2.988 18.604 4.045 C 18.604 5.102 17.744 5.962 16.687 5.962 C 15.63 5.962 14.77 5.102 14.77 4.045 C 14.77 2.988 15.63 2.128 16.687 2.128 Z"
            fill="#8f9090"/>
        <path
            id="path_3"
            clip-path="url(#clip_path_3)"
            d="M 11.737 4.996 C 12.017 4.996 12.244 4.769 12.244 4.489 L 12.244 0.507 C 12.244 0.227 12.017 0 11.737 0 C 11.457 0 11.23 0.227 11.23 0.507 L 11.23 4.489 C 11.23 4.769 11.457 4.996 11.737 4.996 Z"
            fill="#8f9090"/>
        <path
            id="path_4"
            clip-path="url(#clip_path_4)"
            d="M 9.305 3.243 C 9.585 3.243 9.812 3.016 9.812 2.736 L 9.812 0.507 C 9.812 0.227 9.585 0 9.305 0 C 9.025 0 8.798 0.227 8.798 0.507 L 8.798 2.736 C 8.798 3.016 9.025 3.243 9.305 3.243 Z"
            fill="#8f9090"/>
        <path
            id="path_5"
            clip-path="url(#clip_path_5)"
            d="M 2.764 18.703 C 2.897 18.703 3.027 18.649 3.122 18.555 C 3.216 18.46 3.27 18.329 3.27 18.196 C 3.27 18.063 3.216 17.932 3.122 17.838 C 3.027 17.744 2.897 17.689 2.764 17.689 C 2.63 17.689 2.499 17.744 2.405 17.838 C 2.311 17.932 2.257 18.063 2.257 18.196 C 2.257 18.329 2.311 18.46 2.405 18.555 C 2.499 18.649 2.63 18.703 2.764 18.703 Z"
            fill="#8f9090"/>
    </g>
</svg>
