<svg
    xmlns="http://www.w3.org/2000/svg"
    viewBox="0 0 20 20"
    id="vector">
    <path
        id="path_3"
        d="M 2 0 L 18 0 C 18.53 0 19.039 0.211 19.414 0.586 C 19.789 0.961 20 1.47 20 2 L 20 18 C 20 18.53 19.789 19.039 19.414 19.414 C 19.039 19.789 18.53 20 18 20 L 2 20 C 1.47 20 0.961 19.789 0.586 19.414 C 0.211 19.039 0 18.53 0 18 L 0 2 C 0 1.47 0.211 0.961 0.586 0.586 C 0.961 0.211 1.47 0 2 0 Z"
        fill="#ffffff"/>
    <path
        id="path_4"
        d="M 2 0.5 L 18 0.5 C 18.398 0.5 18.779 0.658 19.061 0.939 C 19.342 1.221 19.5 1.602 19.5 2 L 19.5 18 C 19.5 18.398 19.342 18.779 19.061 19.061 C 18.779 19.342 18.398 19.5 18 19.5 L 2 19.5 C 1.602 19.5 1.221 19.342 0.939 19.061 C 0.658 18.779 0.5 18.398 0.5 18 L 0.5 2 C 0.5 1.602 0.658 1.221 0.939 0.939 C 1.221 0.658 1.602 0.5 2 0.5 Z"
        fill="#00000000"
        stroke="#0056a3"
        stroke-opacity="0.35"
        stroke-width="1"/>
    <path
        id="path_5"
        d="M 11.195 11.477 L 14.234 11.477 L 14.234 9.484 L 11.195 9.484 L 11.195 6.289 L 9.156 6.289 L 9.156 9.484 L 6.125 9.484 L 6.125 11.477 L 9.156 11.477 L 9.156 14.664 L 11.195 14.664 L 11.195 11.477 Z"
        fill="#000000"/>
</svg>
