<svg
    xmlns="http://www.w3.org/2000/svg"
    viewBox="0 0 25 25"
    id="vector">
    <path
        id="path"
        d="M 24.042 5.105 C 23.083 3.785 21.403 2.593 19.312 1.75 C 17.232 0.911 14.817 0.448 12.512 0.444 C 10.207 0.439 7.789 0.898 5.706 1.73 C 3.611 2.567 1.927 3.753 0.965 5.07 C 0.04 6.335 -0.227 7.698 0.194 9.012 C 0.467 9.865 1.262 10.438 2.174 10.44 L 5.297 10.443 C 5.298 10.443 5.299 10.443 5.3 10.443 C 5.923 10.443 6.508 10.17 6.905 9.695 C 7.298 9.224 7.462 8.609 7.352 8.008 C 7.349 7.99 7.345 7.972 7.341 7.955 L 7.176 7.316 C 8.086 6.882 10.148 6.043 12.502 6.057 C 14.855 6.069 16.915 6.907 17.826 7.341 L 17.659 7.976 C 17.655 7.994 17.651 8.013 17.647 8.031 C 17.536 8.632 17.697 9.247 18.089 9.719 C 18.486 10.197 19.072 10.471 19.696 10.472 L 22.819 10.475 C 22.82 10.475 22.821 10.475 22.822 10.475 C 23.732 10.475 24.528 9.904 24.803 9.053 C 25.227 7.739 24.964 6.373 24.042 5.105 Z M 23.383 8.594 C 23.309 8.823 23.078 8.983 22.821 8.983 C 22.821 8.983 22.821 8.983 22.82 8.983 L 19.698 8.98 C 19.518 8.979 19.35 8.901 19.237 8.765 C 19.175 8.691 19.079 8.537 19.111 8.323 L 19.421 7.142 C 19.506 6.818 19.365 6.477 19.076 6.308 C 18.956 6.237 16.085 4.583 12.51 4.564 C 12.49 4.564 12.471 4.564 12.451 4.564 C 8.899 4.564 6.049 6.212 5.928 6.282 C 5.641 6.451 5.5 6.789 5.583 7.112 L 5.888 8.295 C 5.919 8.51 5.822 8.664 5.761 8.738 C 5.647 8.873 5.479 8.95 5.3 8.95 C 5.299 8.95 5.299 8.95 5.299 8.95 L 2.176 8.948 C 1.919 8.947 1.688 8.787 1.615 8.557 C 1.342 7.704 1.528 6.827 2.169 5.95 C 3.871 3.622 8.207 1.936 12.486 1.936 C 12.494 1.936 12.502 1.936 12.51 1.936 C 16.794 1.942 21.136 3.644 22.835 5.982 C 23.474 6.862 23.659 7.74 23.383 8.594 Z"
        fill="#ffffff"/>
    <path
        id="path_1"
        d="M 19.56 13.662 L 17.232 11.217 C 17.091 11.069 16.896 10.986 16.692 10.986 L 15.187 10.986 L 15.187 9.969 C 15.187 9.557 14.853 9.223 14.441 9.223 C 14.029 9.223 13.695 9.557 13.695 9.969 L 13.695 10.986 L 11.306 10.986 L 11.306 9.969 C 11.306 9.557 10.972 9.223 10.56 9.223 C 10.148 9.223 9.814 9.557 9.814 9.969 L 9.814 10.986 L 8.309 10.986 C 8.105 10.986 7.91 11.07 7.769 11.217 L 5.44 13.662 C 3.614 15.579 2.609 18.093 2.609 20.741 L 2.609 23.81 C 2.609 24.222 2.943 24.556 3.355 24.556 L 21.645 24.556 C 22.058 24.556 22.392 24.222 22.392 23.81 L 22.392 20.741 C 22.392 18.093 21.386 15.579 19.56 13.662 Z M 4.101 23.064 L 4.101 20.741 C 4.101 18.478 4.96 16.33 6.521 14.691 L 8.629 12.478 L 16.372 12.478 L 18.48 14.691 C 20.04 16.33 20.899 18.478 20.899 20.741 L 20.899 23.064 L 4.101 23.064 Z"
        fill="#ffffff"/>
    <path
        id="path_2"
        d="M 12.5 14.02 C 10.347 14.02 8.596 15.771 8.596 17.924 C 8.596 20.077 10.348 21.829 12.5 21.829 C 14.653 21.829 16.404 20.077 16.404 17.924 C 16.404 15.771 14.653 14.02 12.5 14.02 Z M 12.5 20.337 C 11.17 20.337 10.088 19.254 10.088 17.924 C 10.088 16.594 11.17 15.512 12.5 15.512 C 13.83 15.512 14.912 16.594 14.912 17.924 C 14.912 19.254 13.83 20.337 12.5 20.337 Z"
        fill="#ffffff"/>
</svg>
