<svg
    xmlns="http://www.w3.org/2000/svg"
    viewBox="0 0 25 25"
    id="vector">
    <path
        id="path"
        d="M 22.314 4.932 L 17.422 4.932 L 16.947 3.504 C 16.647 2.606 15.809 2.002 14.862 2.002 L 10.138 2.002 C 9.191 2.002 8.353 2.606 8.053 3.504 L 7.577 4.932 L 6.396 4.932 L 6.396 3.711 C 6.396 2.769 5.63 2.002 4.688 2.002 L 3.711 2.002 C 2.769 2.002 2.002 2.769 2.002 3.711 L 2.002 5.02 C 0.851 5.323 0 6.373 0 7.617 L 0 20.313 C 0 21.793 1.205 22.998 2.686 22.998 L 22.314 22.998 C 23.795 22.998 25 21.793 25 20.313 L 25 7.617 C 25 6.136 23.795 4.932 22.314 4.932 Z M 3.467 3.711 C 3.467 3.576 3.576 3.467 3.711 3.467 L 4.688 3.467 C 4.822 3.467 4.932 3.576 4.932 3.711 L 4.932 4.932 L 3.467 4.932 L 3.467 3.711 Z M 23.535 20.313 C 23.535 20.986 22.988 21.533 22.314 21.533 L 2.686 21.533 C 2.012 21.533 1.465 20.986 1.465 20.313 L 1.465 7.617 C 1.465 6.944 2.012 6.396 2.686 6.396 L 8.105 6.396 C 8.421 6.396 8.701 6.195 8.8 5.896 L 9.443 3.968 C 9.543 3.668 9.822 3.467 10.138 3.467 L 14.862 3.467 C 15.178 3.467 15.457 3.668 15.557 3.968 L 16.2 5.896 C 16.299 6.195 16.579 6.396 16.895 6.396 L 22.314 6.396 C 22.988 6.396 23.535 6.944 23.535 7.617 L 23.535 20.313 Z"
        fill="#ffffff"/>
    <path
        id="path_1"
        d="M 21.289 9.326 C 21.694 9.326 22.021 8.998 22.021 8.594 C 22.021 8.189 21.694 7.861 21.289 7.861 C 20.885 7.861 20.557 8.189 20.557 8.594 C 20.557 8.998 20.885 9.326 21.289 9.326 Z"
        fill="#ffffff"/>
    <path
        id="path_2"
        d="M 12.5 19 C 9.467 19 7 16.533 7 13.5 C 7 10.467 9.467 8 12.5 8 C 15.533 8 18 10.467 18 13.5 C 18 16.533 15.533 19 12.5 19 Z M 12.5 9.222 C 10.141 9.222 8.222 11.141 8.222 13.5 C 8.222 15.859 10.141 17.778 12.5 17.778 C 14.859 17.778 16.778 15.859 16.778 13.5 C 16.778 11.141 14.859 9.222 12.5 9.222 Z"
        fill="#ffffff"/>
</svg>
