<svg
    xmlns="http://www.w3.org/2000/svg"
    viewBox="0 0 12 12"
    id="vector">
    <path
        id="path"
        d="M 5.669 0.481 C 5.731 0.355 5.859 0.276 6 0.276 C 6.14 0.276 6.268 0.355 6.33 0.481 L 7.769 3.396 C 7.904 3.67 8.166 3.86 8.468 3.903 L 11.684 4.371 C 11.823 4.391 11.938 4.489 11.982 4.622 C 12.025 4.755 11.989 4.902 11.889 5 L 9.562 7.269 C 9.343 7.482 9.243 7.789 9.294 8.09 L 9.844 11.293 C 9.867 11.431 9.81 11.571 9.697 11.654 C 9.583 11.736 9.433 11.747 9.309 11.682 L 6.432 10.17 C 6.161 10.028 5.838 10.028 5.568 10.17 L 2.691 11.682 C 2.567 11.747 2.417 11.736 2.303 11.654 C 2.189 11.571 2.133 11.431 2.156 11.293 L 2.706 8.091 C 2.757 7.789 2.657 7.482 2.438 7.269 L 0.111 5 C 0.011 4.902 -0.025 4.755 0.018 4.622 C 0.061 4.489 0.177 4.391 0.316 4.371 L 3.532 3.904 C 3.834 3.86 4.096 3.67 4.231 3.396 L 5.669 0.481 Z"
        fill="#fcaa00"/>
</svg>
