<svg
    xmlns="http://www.w3.org/2000/svg"
    viewBox="0 0 29 31"
    id="vector">
    <path
        id="path_2"
        d="M 27.599 7.829 L 27.28 7.829 C 27.092 7.168 26.829 6.533 26.495 5.934 L 26.721 5.707 C 26.98 5.448 27.122 5.103 27.122 4.735 C 27.122 4.367 26.98 4.022 26.721 3.762 L 25.213 2.256 C 24.954 1.995 24.608 1.852 24.239 1.852 C 23.87 1.852 23.525 1.995 23.267 2.255 L 23.041 2.481 C 22.441 2.146 21.806 1.882 21.145 1.694 L 21.145 1.375 C 21.145 0.617 20.528 0 19.77 0 L 17.638 0 C 16.879 0 16.262 0.617 16.262 1.375 L 16.262 1.694 C 15.602 1.882 14.967 2.146 14.365 2.481 L 14.14 2.256 C 13.881 1.995 13.535 1.852 13.167 1.852 C 12.798 1.852 12.452 1.996 12.195 2.255 L 10.687 3.763 C 10.428 4.022 10.285 4.367 10.285 4.735 C 10.285 5.103 10.428 5.448 10.687 5.707 L 10.913 5.934 C 10.577 6.535 10.314 7.17 10.127 7.829 L 9.807 7.829 C 9.049 7.829 8.432 8.446 8.432 9.204 L 8.432 11.338 C 8.432 12.097 9.049 12.714 9.807 12.714 L 10.127 12.714 C 10.314 13.373 10.577 14.007 10.913 14.609 L 10.687 14.835 C 10.428 15.094 10.285 15.44 10.285 15.808 C 10.285 16.176 10.428 16.521 10.687 16.78 L 12.193 18.287 C 12.452 18.547 12.798 18.691 13.167 18.691 L 13.167 18.691 C 13.535 18.691 13.881 18.547 14.139 18.288 L 14.365 18.061 C 14.967 18.397 15.602 18.661 16.262 18.848 L 16.262 19.167 C 16.262 19.926 16.879 20.543 17.638 20.543 L 19.77 20.543 C 20.528 20.543 21.145 19.926 21.145 19.167 L 21.145 18.848 C 21.806 18.661 22.44 18.397 23.041 18.062 L 23.266 18.287 C 23.525 18.547 23.87 18.691 24.239 18.691 C 24.608 18.691 24.954 18.547 25.211 18.288 L 26.721 16.78 C 26.98 16.521 27.122 16.176 27.122 15.808 C 27.122 15.439 26.98 15.094 26.721 14.835 L 26.495 14.609 C 26.829 14.009 27.092 13.375 27.28 12.714 L 27.599 12.714 C 28.357 12.714 28.974 12.097 28.974 11.338 L 28.974 9.204 C 28.974 8.446 28.357 7.829 27.599 7.829 Z M 19.918 19.167 C 19.918 19.248 19.85 19.315 19.77 19.315 L 17.638 19.315 C 17.557 19.315 17.489 19.248 17.489 19.167 L 17.489 18.371 L 17.489 14.502 C 17.489 14.246 17.33 14.016 17.089 13.927 C 15.44 13.315 14.333 11.729 14.333 9.978 C 14.333 8.591 15.023 7.291 16.18 6.5 C 16.232 6.465 16.278 6.436 16.318 6.412 C 16.316 6.492 16.31 6.568 16.307 6.607 C 16.302 6.669 16.299 6.719 16.299 6.767 L 16.299 9.663 C 16.299 10.993 17.337 12.103 18.663 12.191 C 18.69 12.192 18.717 12.192 18.744 12.191 C 20.069 12.103 21.107 10.993 21.107 9.663 L 21.107 6.767 C 21.107 6.719 21.103 6.67 21.099 6.608 C 21.096 6.568 21.09 6.492 21.088 6.412 C 21.128 6.436 21.174 6.464 21.226 6.5 C 22.382 7.291 23.073 8.591 23.073 9.978 C 23.073 11.728 21.966 13.315 20.318 13.927 C 20.078 14.016 19.918 14.246 19.918 14.502 L 19.918 18.37 L 19.918 19.167 L 19.918 19.167 Z M 27.747 11.338 C 27.747 11.417 27.678 11.487 27.599 11.487 L 26.804 11.487 C 26.517 11.487 26.269 11.685 26.205 11.965 C 26.011 12.823 25.674 13.635 25.205 14.378 C 25.052 14.62 25.087 14.937 25.29 15.14 L 25.853 15.703 C 25.89 15.74 25.895 15.784 25.895 15.808 C 25.895 15.831 25.89 15.875 25.853 15.912 L 24.342 17.421 C 24.308 17.456 24.267 17.463 24.239 17.463 C 24.211 17.463 24.171 17.456 24.135 17.42 L 23.571 16.856 C 23.368 16.653 23.051 16.618 22.809 16.772 C 22.285 17.104 21.728 17.367 21.145 17.562 L 21.145 14.91 C 23.049 14.024 24.301 12.094 24.301 9.978 C 24.301 8.185 23.41 6.506 21.918 5.487 C 21.69 5.331 20.995 4.855 20.387 5.205 C 19.79 5.549 19.85 6.354 19.875 6.698 C 19.877 6.728 19.879 6.753 19.88 6.767 L 19.88 9.663 C 19.88 10.335 19.367 10.898 18.704 10.963 C 18.04 10.898 17.526 10.335 17.526 9.663 L 17.526 6.772 C 17.527 6.753 17.529 6.728 17.531 6.698 C 17.556 6.354 17.616 5.549 17.02 5.206 C 16.413 4.855 15.717 5.33 15.488 5.487 C 13.996 6.506 13.105 8.185 13.105 9.978 C 13.105 12.094 14.358 14.025 16.262 14.911 L 16.262 17.562 C 15.68 17.367 15.122 17.104 14.597 16.772 C 14.496 16.708 14.382 16.677 14.269 16.677 C 14.11 16.677 13.953 16.738 13.835 16.856 L 13.27 17.421 C 13.235 17.456 13.195 17.463 13.167 17.463 C 13.139 17.463 13.098 17.456 13.062 17.42 L 11.554 15.912 C 11.518 15.875 11.512 15.831 11.512 15.808 C 11.512 15.784 11.518 15.74 11.554 15.703 L 12.118 15.14 C 12.321 14.937 12.356 14.62 12.203 14.378 C 11.731 13.631 11.394 12.82 11.203 11.966 C 11.14 11.686 10.891 11.487 10.604 11.487 L 9.807 11.487 C 9.729 11.487 9.659 11.417 9.659 11.338 L 9.659 9.204 C 9.659 9.124 9.727 9.056 9.807 9.056 L 10.604 9.056 C 10.891 9.056 11.14 8.857 11.203 8.577 C 11.394 7.723 11.731 6.911 12.203 6.165 C 12.356 5.922 12.321 5.606 12.118 5.403 L 11.554 4.839 C 11.518 4.803 11.512 4.758 11.512 4.735 C 11.512 4.712 11.518 4.667 11.554 4.63 L 13.064 3.121 C 13.098 3.086 13.139 3.079 13.167 3.079 C 13.195 3.079 13.235 3.086 13.271 3.122 L 13.835 3.686 C 14.038 3.889 14.354 3.924 14.597 3.771 C 15.342 3.299 16.155 2.962 17.011 2.769 C 17.291 2.705 17.49 2.457 17.49 2.17 L 17.49 1.375 C 17.49 1.295 17.557 1.227 17.638 1.227 L 19.77 1.227 C 19.85 1.227 19.918 1.295 19.918 1.375 L 19.918 2.17 C 19.918 2.457 20.117 2.706 20.397 2.769 C 21.254 2.962 22.066 3.299 22.809 3.77 C 23.051 3.924 23.368 3.889 23.571 3.686 L 24.136 3.121 C 24.171 3.086 24.211 3.079 24.239 3.079 C 24.267 3.079 24.308 3.086 24.344 3.123 L 25.853 4.631 C 25.89 4.667 25.896 4.712 25.896 4.735 C 25.896 4.758 25.89 4.803 25.853 4.839 L 25.29 5.403 C 25.087 5.606 25.052 5.922 25.205 6.165 C 25.674 6.907 26.011 7.719 26.205 8.578 C 26.269 8.857 26.517 9.056 26.804 9.056 L 27.599 9.056 C 27.679 9.056 27.747 9.124 27.747 9.204 L 27.747 11.338 L 27.747 11.338 Z"
        fill="#8f9090"/>
    <path
        id="path_3"
        d="M 22.279 27.017 C 22.039 27.257 22.039 27.645 22.279 27.885 C 22.399 28.005 22.556 28.065 22.713 28.065 C 22.87 28.065 23.027 28.005 23.147 27.885 L 23.149 27.883 C 23.388 27.644 23.387 27.256 23.148 27.016 C 22.908 26.777 22.519 26.778 22.279 27.017 Z"
        fill="#8f9090"/>
    <path
        id="path_4"
        d="M 25.122 21.074 L 20.25 23.576 C 19.837 23.148 19.259 22.881 18.619 22.881 L 15.281 22.881 C 15.094 22.881 15.048 22.866 15.045 22.865 C 15.018 22.851 14.933 22.771 14.864 22.706 L 14.834 22.678 C 12.133 20.136 9.852 20.297 7.258 21.321 C 6.839 21.486 6.831 21.487 6.409 21.505 L 5.654 21.505 C 5.439 20.856 4.828 20.387 4.108 20.387 L 1.654 20.387 C 0.756 20.387 0.026 21.118 0.026 22.016 L 0.026 28.457 C 0.026 29.355 0.756 30.085 1.654 30.085 L 4.108 30.085 C 4.827 30.085 5.439 29.616 5.654 28.968 L 7.035 28.968 C 7.157 28.968 7.157 28.968 7.299 29.008 C 7.35 29.023 7.413 29.04 7.494 29.062 L 13.844 30.761 C 14.124 30.837 14.381 30.911 14.629 30.983 C 15.443 31.219 16.127 31.417 16.839 31.417 C 17.645 31.417 18.487 31.164 19.595 30.425 C 19.601 30.422 19.606 30.418 19.611 30.414 L 20.824 29.55 C 21.1 29.353 21.164 28.97 20.967 28.694 C 20.771 28.418 20.388 28.354 20.112 28.55 L 20.111 28.551 L 18.907 29.41 C 17.299 30.479 16.616 30.281 14.971 29.804 C 14.717 29.731 14.455 29.655 14.163 29.576 L 7.812 27.877 C 7.738 27.857 7.679 27.841 7.631 27.827 C 7.4 27.762 7.313 27.741 7.035 27.741 L 5.737 27.741 L 5.737 22.733 L 6.4 22.733 C 6.409 22.733 6.418 22.733 6.427 22.732 L 6.462 22.731 C 6.976 22.709 7.12 22.695 7.709 22.462 C 9.987 21.563 11.746 21.456 13.993 23.572 L 14.024 23.601 C 14.408 23.962 14.629 24.109 15.281 24.109 L 18.619 24.109 C 19.01 24.109 19.352 24.326 19.53 24.646 C 19.532 24.65 19.534 24.653 19.536 24.657 C 19.616 24.804 19.661 24.972 19.661 25.151 C 19.661 25.725 19.193 26.191 18.619 26.191 L 13.209 26.191 C 12.871 26.191 12.596 26.466 12.596 26.805 C 12.596 27.144 12.871 27.419 13.209 27.419 L 18.619 27.419 C 19.87 27.419 20.888 26.401 20.888 25.151 C 20.888 24.981 20.869 24.816 20.833 24.656 L 25.682 22.166 C 26.141 21.93 26.769 21.956 27.08 22.461 C 27.356 22.907 27.204 23.499 26.728 23.839 L 24.601 25.354 C 24.325 25.55 24.26 25.934 24.457 26.21 C 24.577 26.378 24.766 26.467 24.957 26.467 C 25.08 26.467 25.205 26.43 25.313 26.354 L 27.44 24.838 C 28.45 24.118 28.744 22.819 28.125 21.817 C 27.515 20.827 26.224 20.508 25.122 21.074 Z M 4.51 28.457 C 4.51 28.674 4.326 28.858 4.108 28.858 L 1.654 28.858 C 1.436 28.858 1.253 28.674 1.253 28.457 L 1.253 22.017 C 1.253 21.795 1.433 21.614 1.654 21.614 L 4.108 21.614 C 4.326 21.614 4.51 21.798 4.51 22.017 L 4.51 28.457 Z"
        fill="#8f9090"/>
    <path
        id="path_5"
        d="M 20.967 28.694 C 21.164 28.97 21.1 29.353 20.824 29.55 L 25.313 26.354 C 25.205 26.43 25.08 26.467 24.957 26.467 C 24.766 26.467 24.577 26.378 24.457 26.21 C 24.26 25.934 24.325 25.55 24.601 25.354 L 20.112 28.55 C 20.388 28.354 20.771 28.418 20.967 28.694 Z"
        fill="#8f9090"/>
</svg>
