<svg
    xmlns="http://www.w3.org/2000/svg"
    viewBox="0 0 25 25"
    id="vector">
    <path
        id="path"
        d="M 12.375 0 C 5.551 0 0 5.551 0 12.375 C 0 19.199 5.551 24.75 12.375 24.75 C 19.199 24.75 24.75 19.199 24.75 12.375 C 24.75 5.551 19.199 0 12.375 0 Z M 12.375 22.688 C 6.689 22.688 2.063 18.061 2.063 12.375 C 2.063 6.689 6.689 2.063 12.375 2.063 C 18.061 2.063 22.688 6.689 22.688 12.375 C 22.688 18.061 18.061 22.688 12.375 22.688 Z"
        fill="#22549d"/>
    <path
        id="path_3"
        d="M 16.223 8.621 L 11.79 13.941 L 9.494 11.646 C 9.092 11.243 8.438 11.243 8.036 11.646 C 7.633 12.049 7.633 12.701 8.036 13.104 L 11.13 16.198 C 11.324 16.392 11.587 16.5 11.86 16.5 C 11.875 16.5 11.891 16.5 11.906 16.499 C 12.196 16.486 12.466 16.352 12.652 16.129 L 17.808 9.941 C 18.173 9.503 18.114 8.854 17.676 8.489 C 17.238 8.125 16.588 8.183 16.223 8.621 Z"
        fill="#22549d"/>
</svg>
