<svg
    xmlns="http://www.w3.org/2000/svg"
    viewBox="0 0 24 24"
    id="vector">
    <defs>
        <clipPath id="clip_path">
            <path d="M 0 0 L 24 0 L 24 24 L 0 24 Z M 0 0"/>
        </clipPath>
        <clipPath id="clip_path_1">
            <path d="M 0 0 L 24 0 L 24 24 L 0 24 Z M 0 0"/>
        </clipPath>
    </defs>
    <g id="group">
        <path
            id="path"
            clip-path="url(#clip_path)"
            d="M 21.25 24 L 2.75 24 C 1.233 24 0 22.767 0 21.25 L 0 6.75 C 0 5.233 1.233 4 2.75 4 L 6.25 4 C 6.664 4 7 4.336 7 4.75 C 7 5.164 6.664 5.5 6.25 5.5 L 2.75 5.5 C 2.061 5.5 1.5 6.061 1.5 6.75 L 1.5 21.25 C 1.5 21.939 2.061 22.5 2.75 22.5 L 21.25 22.5 C 21.939 22.5 22.5 21.939 22.5 21.25 L 22.5 12.75 C 22.5 12.336 22.836 12 23.25 12 C 23.664 12 24 12.336 24 12.75 L 24 21.25 C 24 22.767 22.767 24 21.25 24 Z"
            fill="#ffffff"/>
        <path
            id="path_1"
            clip-path="url(#clip_path_1)"
            d="M 6.749 15.987 C 6.694 15.987 6.639 15.981 6.584 15.967 C 6.245 15.888 6 15.598 6 15.25 L 6 13.75 C 6 8.374 10.374 4 15.75 4 L 16 4 L 16 0.75 C 16 0.444 16.186 0.169 16.47 0.054 C 16.753 -0.06 17.078 0.009 17.29 0.23 L 23.79 6.98 C 24.07 7.27 24.07 7.73 23.79 8.02 L 17.29 14.77 C 17.078 14.991 16.751 15.059 16.47 14.946 C 16.186 14.831 16 14.556 16 14.25 L 16 11 L 14.812 11 C 11.666 11 8.839 12.748 7.433 15.561 C 7.304 15.821 7.033 15.987 6.749 15.987 Z M 15.75 5.5 C 11.55 5.5 8.072 8.655 7.563 12.72 C 9.381 10.692 11.988 9.5 14.812 9.5 L 16.75 9.5 C 17.164 9.5 17.5 9.836 17.5 10.25 L 17.5 12.39 L 22.209 7.5 L 17.5 2.61 L 17.5 4.75 C 17.5 5.164 17.164 5.5 16.75 5.5 L 15.75 5.5 Z"
            fill="#ffffff"/>
    </g>
</svg>
