<svg
    xmlns="http://www.w3.org/2000/svg"
    viewBox="0 0 25 25"
    id="vector">
    <path
        id="path"
        d="M 21.339 3.661 C 18.978 1.3 15.839 0 12.5 0 C 9.161 0 6.022 1.3 3.661 3.661 C 1.3 6.022 0 9.161 0 12.5 C 0 15.839 1.3 18.978 3.661 21.339 C 6.022 23.7 9.161 25 12.5 25 C 15.839 25 18.978 23.7 21.339 21.339 C 23.7 18.978 25 15.839 25 12.5 C 25 9.161 23.7 6.022 21.339 3.661 Z M 12.5 23.047 C 6.684 23.047 1.953 18.316 1.953 12.5 C 1.953 6.684 6.684 1.953 12.5 1.953 C 18.316 1.953 23.047 6.684 23.047 12.5 C 23.047 18.316 18.316 23.047 12.5 23.047 Z M 13.477 11.523 L 17.871 11.523 L 17.871 13.476 L 13.477 13.476 L 13.477 17.87 L 11.523 17.87 L 11.523 13.476 L 7.129 13.476 L 7.129 11.523 L 11.523 11.523 L 11.523 7.128 L 13.477 7.128 L 13.477 11.523 Z"
        fill="#22549d"/>
</svg>
