<svg
    xmlns="http://www.w3.org/2000/svg"
    viewBox="0 0 25 25"
    id="vector">
    <path
        id="path"
        d="M 12.5 0 C 5.596 0 0 5.596 0 12.5 C 0 19.404 5.596 25 12.5 25 C 19.404 25 25 19.404 25 12.5 C 24.993 5.599 19.401 0.007 12.5 0 Z M 12.5 23.214 C 6.583 23.214 1.786 18.417 1.786 12.5 C 1.786 6.583 6.583 1.786 12.5 1.786 C 18.417 1.786 23.214 6.583 23.214 12.5 C 23.208 18.415 18.415 23.208 12.5 23.214 Z"
        fill="#ff9a5c"/>
    <path
        id="path_1"
        d="M 12.5 4.464 C 12.007 4.464 11.607 4.864 11.607 5.357 L 11.607 11.607 L 5.357 11.607 C 4.864 11.607 4.464 12.007 4.464 12.5 C 4.464 12.993 4.864 13.393 5.357 13.393 L 12.5 13.393 C 12.993 13.393 13.393 12.993 13.393 12.5 L 13.393 5.357 C 13.393 4.864 12.993 4.464 12.5 4.464 Z"
        fill="#ff9a5c"/>
</svg>
