<svg
    xmlns="http://www.w3.org/2000/svg"
    viewBox="0 0 25 25"
    id="vector">
    <path
        id="path_1"
        d="M 12.5 0.125 C 5.676 0.125 0.125 5.676 0.125 12.5 C 0.125 19.324 5.676 24.875 12.5 24.875 C 19.324 24.875 24.875 19.324 24.875 12.5 C 24.875 5.676 19.324 0.125 12.5 0.125 Z M 12.5 22.813 C 6.814 22.813 2.188 18.186 2.188 12.5 C 2.188 6.814 6.814 2.188 12.5 2.188 C 18.186 2.188 22.813 6.814 22.813 12.5 C 22.813 18.186 18.186 22.813 12.5 22.813 Z"
        fill="#66b429"/>
    <path
        id="path_2"
        d="M 16.348 8.746 L 11.915 14.066 L 9.619 11.771 C 9.217 11.368 8.563 11.368 8.161 11.771 C 7.758 12.174 7.758 12.826 8.161 13.229 L 11.255 16.323 C 11.449 16.517 11.712 16.625 11.985 16.625 C 12 16.625 12.016 16.625 12.031 16.624 C 12.321 16.611 12.591 16.477 12.777 16.254 L 17.933 10.066 C 18.298 9.628 18.239 8.979 17.801 8.614 C 17.363 8.25 16.713 8.308 16.348 8.746 Z"
        fill="#66b429"/>
</svg>
