<svg
    xmlns="http://www.w3.org/2000/svg"
    viewBox="0 0 30 30"
    id="vector">
    <defs>
        <clipPath id="clip_path">
            <path d="M 0 0 L 30 0 L 30 30 L 0 30 Z M 0 0"/>
        </clipPath>
        <clipPath id="clip_path_1">
            <path d="M 0 0 L 30 0 L 30 30 L 0 30 Z M 0 0"/>
        </clipPath>
        <clipPath id="clip_path_2">
            <path d="M 0 0 L 30 0 L 30 30 L 0 30 Z M 0 0"/>
        </clipPath>
        <clipPath id="clip_path_3">
            <path d="M 0 0 L 30 0 L 30 30 L 0 30 Z M 0 0"/>
        </clipPath>
        <clipPath id="clip_path_4">
            <path d="M 0 0 L 30 0 L 30 30 L 0 30 Z M 0 0"/>
        </clipPath>
        <clipPath id="clip_path_5">
            <path d="M 0 0 L 30 0 L 30 30 L 0 30 Z M 0 0"/>
        </clipPath>
        <clipPath id="clip_path_6">
            <path d="M 0 0 L 30 0 L 30 30 L 0 30 Z M 0 0"/>
        </clipPath>
        <clipPath id="clip_path_7">
            <path d="M 0 0 L 30 0 L 30 30 L 0 30 Z M 0 0"/>
        </clipPath>
        <clipPath id="clip_path_8">
            <path d="M 0 0 L 30 0 L 30 30 L 0 30 Z M 0 0"/>
        </clipPath>
    </defs>
    <g id="group">
        <path
            id="path"
            clip-path="url(#clip_path)"
            d="M 11.275 26.25 L 3.125 26.25 C 1.403 26.25 0 24.849 0 23.125 L 0 5.625 C 0 3.901 1.403 2.5 3.125 2.5 L 18.125 2.5 C 19.848 2.5 21.25 3.901 21.25 5.625 L 21.25 10.7 C 21.25 11.045 20.97 11.325 20.625 11.325 C 20.28 11.325 20 11.045 20 10.7 L 20 5.625 C 20 4.591 19.159 3.75 18.125 3.75 L 3.125 3.75 C 2.091 3.75 1.25 4.591 1.25 5.625 L 1.25 23.125 C 1.25 24.159 2.091 25 3.125 25 L 11.275 25 C 11.62 25 11.9 25.28 11.9 25.625 C 11.9 25.97 11.62 26.25 11.275 26.25 Z"
            fill="#769d22"/>
        <path
            id="path_1"
            clip-path="url(#clip_path_1)"
            d="M 4.375 6.25 C 4.03 6.25 3.75 5.97 3.75 5.625 L 3.75 0.625 C 3.75 0.28 4.03 0 4.375 0 C 4.72 0 5 0.28 5 0.625 L 5 5.625 C 5 5.97 4.72 6.25 4.375 6.25 Z"
            fill="#769d22"/>
        <path
            id="path_2"
            clip-path="url(#clip_path_2)"
            d="M 10.625 6.25 C 10.28 6.25 10 5.97 10 5.625 L 10 0.625 C 10 0.28 10.28 0 10.625 0 C 10.97 0 11.25 0.28 11.25 0.625 L 11.25 5.625 C 11.25 5.97 10.97 6.25 10.625 6.25 Z"
            fill="#769d22"/>
        <path
            id="path_3"
            clip-path="url(#clip_path_3)"
            d="M 16.875 6.25 C 16.53 6.25 16.25 5.97 16.25 5.625 L 16.25 0.625 C 16.25 0.28 16.53 0 16.875 0 C 17.22 0 17.5 0.28 17.5 0.625 L 17.5 5.625 C 17.5 5.97 17.22 6.25 16.875 6.25 Z"
            fill="#769d22"/>
        <path
            id="path_4"
            clip-path="url(#clip_path_4)"
            d="M 12.525 16.25 L 4.375 16.25 C 4.03 16.25 3.75 15.97 3.75 15.625 C 3.75 15.28 4.03 15 4.375 15 L 12.525 15 C 12.87 15 13.15 15.28 13.15 15.625 C 13.15 15.97 12.87 16.25 12.525 16.25 Z"
            fill="#769d22"/>
        <path
            id="path_5"
            clip-path="url(#clip_path_5)"
            d="M 10.625 11.25 L 4.375 11.25 C 4.03 11.25 3.75 10.97 3.75 10.625 C 3.75 10.28 4.03 10 4.375 10 L 10.625 10 C 10.97 10 11.25 10.28 11.25 10.625 C 11.25 10.97 10.97 11.25 10.625 11.25 Z"
            fill="#769d22"/>
        <path
            id="path_6"
            clip-path="url(#clip_path_6)"
            d="M 21.875 30 C 17.395 30 13.75 26.355 13.75 21.875 C 13.75 17.395 17.395 13.75 21.875 13.75 C 26.355 13.75 30 17.395 30 21.875 C 30 26.355 26.355 30 21.875 30 Z M 21.875 15 C 18.084 15 15 18.085 15 21.875 C 15 25.665 18.084 28.75 21.875 28.75 C 25.666 28.75 28.75 25.665 28.75 21.875 C 28.75 18.085 25.666 15 21.875 15 Z"
            fill="#769d22"/>
        <path
            id="path_7"
            clip-path="url(#clip_path_7)"
            d="M 21.875 26.25 C 21.53 26.25 21.25 25.97 21.25 25.625 L 21.25 18.125 C 21.25 17.78 21.53 17.5 21.875 17.5 C 22.22 17.5 22.5 17.78 22.5 18.125 L 22.5 25.625 C 22.5 25.97 22.22 26.25 21.875 26.25 Z"
            fill="#769d22"/>
        <path
            id="path_8"
            clip-path="url(#clip_path_8)"
            d="M 25.625 22.5 L 18.125 22.5 C 17.78 22.5 17.5 22.22 17.5 21.875 C 17.5 21.53 17.78 21.25 18.125 21.25 L 25.625 21.25 C 25.97 21.25 26.25 21.53 26.25 21.875 C 26.25 22.22 25.97 22.5 25.625 22.5 Z"
            fill="#769d22"/>
    </g>
</svg>
