<svg
    xmlns="http://www.w3.org/2000/svg"
    viewBox="0 0 32 28"
    id="vector">
    <path
        id="path"
        d="M 30.399 8.873 L 27.328 8.873 L 26.466 2.369 C 26.343 1.496 25.541 0.884 24.666 0.995 L 1.39 4.08 C 0.968 4.136 0.586 4.358 0.329 4.697 C 0.07 5.034 -0.043 5.46 0.015 5.88 L 1.979 20.692 C 2.083 21.489 2.763 22.086 3.568 22.085 C 3.637 22.085 3.705 22.081 3.774 22.072 L 5.316 21.868 L 5.316 25.417 C 5.316 26.301 6.032 27.018 6.917 27.018 L 30.399 27.018 C 31.283 27.018 32 26.301 32 25.417 L 32 10.474 C 32 9.59 31.283 8.873 30.399 8.873 Z M 26.252 8.873 L 22.084 8.873 L 26.18 8.33 L 26.252 8.873 Z M 1.072 5.736 C 1.053 5.597 1.091 5.456 1.177 5.345 C 1.263 5.231 1.391 5.156 1.533 5.137 L 24.804 2.053 C 25.097 2.016 25.365 2.22 25.408 2.512 L 25.619 4.102 L 1.282 7.329 L 1.072 5.736 Z M 5.316 20.792 L 3.636 21.013 C 3.344 21.052 3.076 20.847 3.037 20.554 C 3.037 20.554 3.037 20.554 3.037 20.554 L 1.847 11.557 L 5.316 11.099 L 5.316 20.792 Z M 5.386 10.013 L 1.704 10.499 L 1.423 8.388 L 25.76 5.16 L 25.92 6.383 L 26.038 7.272 L 13.961 8.873 L 6.917 8.873 C 6.211 8.874 5.589 9.337 5.386 10.013 Z M 30.933 25.417 C 30.933 25.712 30.694 25.951 30.399 25.951 L 6.917 25.951 C 6.622 25.951 6.383 25.712 6.383 25.417 L 6.383 10.49 C 6.383 10.485 6.386 10.479 6.386 10.474 C 6.386 10.179 6.625 9.94 6.919 9.94 L 30.399 9.94 C 30.694 9.94 30.933 10.179 30.933 10.474 L 30.933 25.417 Z"
        fill="#22549d"/>
    <path
        id="path_1"
        d="M 23.432 16.89 C 23.647 16.732 23.836 16.542 23.995 16.328 C 24.872 17.509 26.541 17.755 27.722 16.878 C 28.903 16 29.149 14.331 28.272 13.15 C 27.768 12.473 26.974 12.074 26.129 12.075 C 25.286 12.077 24.494 12.479 23.995 13.159 C 23.119 11.973 21.449 11.721 20.263 12.596 C 19.077 13.471 18.825 15.142 19.701 16.328 C 20.576 17.514 22.246 17.765 23.432 16.89 Z M 26.129 13.142 C 27.014 13.142 27.73 13.859 27.73 14.743 C 27.73 15.628 27.014 16.344 26.129 16.344 C 25.245 16.344 24.528 15.628 24.528 14.743 C 24.528 13.859 25.245 13.142 26.129 13.142 Z M 21.86 13.142 C 22.744 13.142 23.461 13.859 23.461 14.743 C 23.461 15.628 22.744 16.344 21.86 16.344 C 20.976 16.344 20.259 15.628 20.259 14.743 C 20.259 13.859 20.976 13.142 21.86 13.142 Z"
        fill="#22549d"/>
    <path
        id="path_2"
        d="M 9.585 12.609 L 8.518 12.609 L 8.518 13.676 L 9.585 13.676 L 9.585 12.609 Z"
        fill="#22549d"/>
    <path
        id="path_3"
        d="M 17.057 12.609 L 10.652 12.609 L 10.652 13.676 L 17.057 13.676 L 17.057 12.609 Z"
        fill="#22549d"/>
    <path
        id="path_4"
        d="M 17.057 14.743 L 8.518 14.743 L 8.518 15.811 L 17.057 15.811 L 17.057 14.743 Z"
        fill="#22549d"/>
    <path
        id="path_5"
        d="M 28.264 19.547 L 9.051 19.547 C 8.757 19.547 8.518 19.786 8.518 20.08 L 8.518 23.282 C 8.518 23.577 8.757 23.816 9.051 23.816 L 28.264 23.816 C 28.559 23.816 28.798 23.577 28.798 23.282 L 28.798 20.08 C 28.798 19.786 28.559 19.547 28.264 19.547 Z M 27.73 22.749 L 9.585 22.749 L 9.585 20.614 L 27.73 20.614 L 27.73 22.749 Z"
        fill="#22549d"/>
</svg>
