<svg
    xmlns="http://www.w3.org/2000/svg"
    viewBox="0 0 20 20"
    id="vector">
    <path
        id="path_1"
        d="M 10.602 9.753 L 10.586 5.7 L 9.414 5.705 L 9.432 10.247 L 13.721 14.46 L 14.542 13.624 L 10.602 9.753 Z"
        fill="#22549d"/>
    <path
        id="path_2"
        d="M 17.071 2.929 C 15.182 1.04 12.671 0 10 0 C 7.329 0 4.818 1.04 2.929 2.929 C 1.04 4.818 0 7.329 0 10 C 0 12.671 1.04 15.182 2.929 17.071 C 4.818 18.96 7.329 20 10 20 C 12.671 20 15.182 18.96 17.071 17.071 C 18.96 15.182 20 12.671 20 10 C 20 7.329 18.96 4.818 17.071 2.929 Z M 16.643 15.814 L 15.537 14.708 L 14.708 15.537 L 15.814 16.643 C 14.351 17.927 12.529 18.682 10.586 18.808 L 10.586 17.244 L 9.414 17.244 L 9.414 18.808 C 7.471 18.682 5.649 17.927 4.186 16.643 L 5.292 15.537 L 4.463 14.708 L 3.357 15.814 C 2.072 14.351 1.318 12.529 1.192 10.586 L 2.756 10.586 L 2.756 9.414 L 1.192 9.414 C 1.318 7.471 2.072 5.649 3.357 4.186 L 4.463 5.292 L 5.292 4.463 L 4.186 3.357 C 5.649 2.072 7.471 1.318 9.414 1.192 L 9.414 2.664 L 10.586 2.664 L 10.586 1.192 C 12.529 1.318 14.351 2.072 15.814 3.357 L 14.773 4.398 L 15.602 5.227 L 16.643 4.186 C 17.928 5.649 18.682 7.471 18.808 9.414 L 17.244 9.414 L 17.244 10.586 L 18.808 10.586 C 18.682 12.529 17.928 14.351 16.643 15.814 Z"
        fill="#22549d"/>
</svg>
