<svg
    xmlns="http://www.w3.org/2000/svg"
    viewBox="0 0 24 30"
    id="vector">
    <path
        id="path"
        d="M 0.994 26.192 C 1.209 26.31 6.321 29.062 12 29.062 C 18.153 29.062 22.826 26.3 23.022 26.183 C 23.092 26.141 23.149 26.082 23.189 26.012 C 23.229 25.942 23.25 25.862 23.25 25.781 C 23.25 21.996 22.089 18.533 19.982 16.029 C 18.508 14.277 16.659 13.082 14.619 12.533 C 15.867 11.938 16.877 10.937 17.481 9.693 C 18.085 8.449 18.249 7.037 17.944 5.688 C 17.64 4.339 16.885 3.134 15.805 2.27 C 14.725 1.407 13.383 0.936 12 0.936 C 10.617 0.936 9.275 1.407 8.195 2.27 C 7.115 3.134 6.361 4.339 6.056 5.688 C 5.751 7.037 5.915 8.449 6.519 9.693 C 7.123 10.937 8.133 11.938 9.381 12.533 C 7.341 13.082 5.492 14.277 4.018 16.029 C 1.911 18.533 0.75 21.996 0.75 25.781 C 0.75 25.865 0.773 25.948 0.816 26.02 C 0.859 26.093 0.92 26.152 0.994 26.192 Z M 6.844 7.031 C 6.844 6.011 7.146 5.014 7.713 4.166 C 8.279 3.318 9.085 2.658 10.027 2.267 C 10.969 1.877 12.006 1.775 13.006 1.974 C 14.006 2.173 14.925 2.664 15.646 3.385 C 16.367 4.106 16.858 5.025 17.057 6.025 C 17.256 7.025 17.154 8.062 16.764 9.004 C 16.373 9.946 15.713 10.752 14.865 11.318 C 14.017 11.885 13.02 12.187 12 12.187 C 10.633 12.186 9.322 11.642 8.356 10.675 C 7.389 9.709 6.845 8.398 6.844 7.031 Z M 4.735 16.632 C 6.639 14.37 9.218 13.125 12 13.125 C 14.782 13.125 17.361 14.37 19.265 16.632 C 21.18 18.908 22.256 22.051 22.31 25.508 C 21.307 26.05 17.139 28.125 12 28.125 C 7.247 28.125 2.772 26.038 1.69 25.497 C 1.746 22.044 2.822 18.905 4.735 16.632 Z"
        fill="#5d7fde"/>
</svg>
