<svg
    xmlns="http://www.w3.org/2000/svg"
    viewBox="0 0 20 20"
    id="vector">
    <defs>
        <clipPath id="clip_path_2">
            <path d="M 0 0 L 20 0 L 20 20 L 0 20 Z M 0 0"/>
        </clipPath>
        <clipPath id="clip_path_3">
            <path d="M 0 0 L 20 0 L 20 20 L 0 20 Z M 0 0"/>
        </clipPath>
    </defs>
    <g id="group_1">
        <path
            id="path_2"
            clip-path="url(#clip_path_2)"
            d="M 11.855 1.924 C 11.287 1.262 10.776 0.675 10.379 0.183 C 10.36 0.145 10.322 0.126 10.303 0.107 C 10.095 -0.063 9.792 -0.025 9.622 0.183 C 9.224 0.675 8.713 1.262 8.145 1.924 C 5.647 4.82 2.183 8.833 2.183 12.183 C 2.183 14.341 3.054 16.29 4.473 17.71 C 5.893 19.11 7.843 20 10 20 C 12.158 20 14.107 19.129 15.527 17.71 C 16.947 16.29 17.817 14.341 17.817 12.183 C 17.817 8.833 14.354 4.82 11.855 1.924 Z M 14.846 17.009 C 13.596 18.259 11.893 19.035 10 19.035 C 8.107 19.035 6.404 18.259 5.155 17.028 C 3.925 15.798 3.148 14.076 3.148 12.183 C 3.148 9.192 6.48 5.331 8.883 2.549 C 9.281 2.076 9.659 1.64 10 1.224 C 10.341 1.64 10.72 2.076 11.117 2.53 C 13.521 5.312 16.852 9.155 16.852 12.164 C 16.852 14.057 16.076 15.76 14.846 17.009 Z"
            fill="#ed7765"/>
        <path
            id="path_3"
            clip-path="url(#clip_path_3)"
            d="M 10.038 16.555 C 8.864 16.555 7.804 16.082 7.047 15.325 C 6.29 14.568 5.817 13.508 5.817 12.335 C 5.817 12.069 5.609 11.861 5.344 11.861 C 5.079 11.861 4.871 12.069 4.871 12.335 C 4.871 13.773 5.457 15.06 6.385 16.006 C 7.293 16.915 8.599 17.502 10.038 17.502 C 10.303 17.502 10.511 17.294 10.511 17.029 C 10.511 16.764 10.303 16.555 10.038 16.555 Z"
            fill="#ed7765"/>
    </g>
</svg>
