<svg
    xmlns="http://www.w3.org/2000/svg"
    viewBox="0 0 30 30"
    id="vector">
    <path
        id="path"
        d="M 15 0 C 6.75 0 0 6.75 0 15 C 0 23.25 6.75 30 15 30 C 23.25 30 30 23.25 30 15 C 30 6.75 23.25 0 15 0 Z M 15 4.5 C 17.55 4.5 19.5 6.45 19.5 9 C 19.5 11.55 17.55 13.5 15 13.5 C 12.45 13.5 10.5 11.55 10.5 9 C 10.5 6.45 12.45 4.5 15 4.5 Z M 15 25.8 C 11.25 25.8 7.95 23.85 6 21 C 6 18 12 16.35 15 16.35 C 18 16.35 24 18 24 21 C 22.05 23.85 18.75 25.8 15 25.8 Z"
        fill="#ffffff"/>
</svg>
